<?xml version="1.0" standalone="no"?>
<!DOCTYPE svg PUBLIC "-//W3C//DTD SVG 20010904//EN"
 "http://www.w3.org/TR/2001/REC-SVG-20010904/DTD/svg10.dtd">
<svg version="1.0" xmlns="http://www.w3.org/2000/svg"
 width="512.000000pt" height="512.000000pt" viewBox="0 0 512.000000 512.000000"
 preserveAspectRatio="xMidYMid meet">
<metadata>
Created by potrace 1.14, written by Peter Selinger 2001-2017
</metadata>
<g transform="translate(0.000000,512.000000) scale(0.100000,-0.100000)"
fill="#000000" stroke="none">
<path d="M1929 5104 c-189 -28 -336 -81 -494 -177 -137 -83 -316 -282 -364
-404 -11 -28 -20 -33 -80 -48 -201 -49 -417 -192 -550 -364 -121 -156 -203
-366 -227 -586 -5 -40 -4 -262 0 -300 25 -203 76 -398 152 -579 40 -94 37 -81
21 -98 -42 -43 -118 -201 -141 -294 -39 -155 -37 -280 8 -414 60 -176 213
-346 387 -430 l47 -23 -24 -66 c-60 -171 -50 -349 29 -511 38 -78 163 -208
249 -259 104 -60 257 -111 378 -125 25 -3 46 -5 47 -5 1 -1 16 -29 33 -64 124
-249 328 -353 701 -355 183 -1 296 39 405 145 l55 53 56 -55 c60 -60 164 -116
248 -133 68 -15 226 -8 305 12 271 71 448 207 551 426 32 69 45 79 92 71 8 -1
183 25 226 33 97 21 227 86 300 152 166 151 204 346 116 605 -14 40 -24 73
-22 74 1 1 27 14 57 30 223 113 386 327 416 543 24 178 -25 371 -138 540 l-48
73 26 57 c57 125 133 387 150 517 14 107 19 321 10 375 -3 14 -10 59 -16 100
-13 92 -58 229 -106 324 -128 255 -371 455 -640 527 l-81 21 -28 57 c-105 215
-329 402 -593 495 -181 64 -464 92 -612 62 -90 -19 -181 -68 -231 -124 l-39
-45 -47 51 c-48 50 -114 89 -188 112 -57 17 -293 20 -396 4z m358 -205 c91
-30 141 -118 161 -284 4 -33 7 -985 7 -2115 0 -2331 8 -2115 -83 -2208 -62
-64 -131 -86 -262 -85 -191 1 -302 23 -399 80 -93 54 -145 129 -179 257 l-19
69 -81 3 c-189 5 -345 64 -466 175 -179 165 -196 365 -51 605 30 49 51 92 47
95 -4 4 -38 16 -77 29 -237 74 -383 203 -441 389 -38 119 -20 300 45 436 98
209 393 408 619 418 191 8 402 -54 541 -159 82 -62 127 -66 172 -16 60 67 30
132 -99 213 -103 65 -253 126 -359 145 -21 4 -47 8 -58 11 -61 12 -229 14
-291 4 -80 -14 -193 -50 -255 -82 -53 -26 -185 -115 -194 -129 -3 -5 -10 -10
-15 -10 -21 0 -108 294 -127 429 -10 69 -9 331 1 386 76 421 350 700 736 750
l45 6 19 62 c49 159 213 330 411 430 104 52 291 101 420 109 74 5 199 -2 232
-13z m908 -5 c171 -30 319 -92 441 -185 132 -99 227 -223 262 -341 18 -63 8
-56 127 -74 108 -16 253 -83 350 -162 161 -130 282 -347 322 -582 10 -58 10
-309 0 -380 -22 -165 -93 -387 -136 -431 -17 -17 -31 -37 -31 -46 0 -36 -70
-142 -137 -209 -140 -140 -346 -214 -633 -229 -114 -6 -144 -17 -164 -60 -21
-44 -11 -89 27 -121 31 -26 32 -26 162 -20 71 3 153 10 180 16 28 6 65 13 84
16 60 10 184 54 266 95 93 47 171 103 238 173 54 55 49 56 92 -26 35 -66 56
-150 61 -238 14 -258 -161 -473 -461 -567 -44 -14 -81 -26 -83 -28 -2 -1 16
-43 39 -91 76 -162 94 -231 93 -346 -3 -153 -107 -251 -328 -308 -73 -18 -198
-34 -251 -32 -50 3 -190 79 -254 138 -72 66 -115 132 -146 221 -21 61 -28 102
-39 248 -5 52 -13 71 -39 88 -56 36 -124 22 -151 -32 -19 -36 -16 -154 9 -280
2 -9 15 -52 30 -96 62 -185 200 -339 385 -425 l49 -23 -24 -46 c-49 -97 -172
-201 -295 -249 -296 -116 -525 -44 -568 179 -17 86 -13 4082 4 4191 22 141 47
197 106 241 61 45 229 54 413 21z"/>
<path d="M1903 4090 c-31 -13 -51 -48 -63 -108 -18 -96 -86 -179 -190 -231
-79 -40 -142 -54 -301 -65 -63 -5 -93 -19 -108 -53 -25 -54 -6 -114 45 -141
23 -12 173 -8 254 8 252 48 433 193 493 396 22 75 17 139 -14 169 -28 28 -82
40 -116 25z"/>
<path d="M1075 2043 c-58 -15 -86 -78 -61 -137 17 -41 30 -48 146 -76 47 -11
113 -34 147 -50 192 -94 311 -310 328 -597 3 -46 9 -92 14 -101 28 -53 91 -71
145 -43 46 25 57 84 41 221 -12 98 -17 123 -41 209 -78 267 -256 457 -510 542
-85 29 -172 42 -209 32z"/>
<path d="M3362 3890 c-69 -16 -93 -65 -80 -165 16 -125 91 -276 187 -378 156
-166 439 -276 703 -273 66 1 71 3 99 34 42 47 36 120 -12 150 -19 12 -39 15
-185 27 -150 12 -302 73 -407 163 -99 85 -174 219 -183 326 -7 84 -56 130
-122 116z"/>
</g>
</svg>
